/* XPM */
static char * komodo48_ide_xpm[] = {
"48 48 432 2",
"  	c None",
". 	c #070707",
"+ 	c #010101",
"@ 	c #030303",
"# 	c #080809",
"$ 	c #0D0C0C",
"% 	c #0F0F0F",
"& 	c #131314",
"* 	c #161617",
"= 	c #181818",
"- 	c #191919",
"; 	c #1A1A1A",
"> 	c #171718",
", 	c #131313",
"' 	c #0C0C0C",
") 	c #070708",
"! 	c #040405",
"~ 	c #010202",
"{ 	c #161616",
"] 	c #373737",
"^ 	c #555555",
"/ 	c #6C6C6C",
"( 	c #7A7A7A",
"_ 	c #878787",
": 	c #8F8F8F",
"< 	c #949494",
"[ 	c #989898",
"} 	c #9C9C9C",
"| 	c #A1A1A1",
"1 	c #A5A5A6",
"2 	c #A7A8A8",
"3 	c #A9A9A9",
"4 	c #A7A7A7",
"5 	c #A3A3A3",
"6 	c #9B9B9B",
"7 	c #818181",
"8 	c #707170",
"9 	c #595959",
"0 	c #3D3D3D",
"a 	c #212121",
"b 	c #0D0E0E",
"c 	c #040505",
"d 	c #030304",
"e 	c #101010",
"f 	c #7C7C7D",
"g 	c #F4F5F5",
"h 	c #E9E9EA",
"i 	c #EDEDED",
"j 	c #EEEEEE",
"k 	c #F5F6F6",
"l 	c #FFFFFF",
"m 	c #F7F8F8",
"n 	c #EFF0F0",
"o 	c #E4E4E5",
"p 	c #E2E2E2",
"q 	c #E1E2E2",
"r 	c #E1E1E2",
"s 	c #E3E3E3",
"t 	c #E0E0E0",
"u 	c #DCDCDD",
"v 	c #DADADA",
"w 	c #C3C3C2",
"x 	c #9D9D9D",
"y 	c #717171",
"z 	c #3B3C3C",
"A 	c #0F0F10",
"B 	c #D5D5D5",
"C 	c #F4F5F6",
"D 	c #D9DADA",
"E 	c #DEDEDF",
"F 	c #FAFAFB",
"G 	c #EFEFEF",
"H 	c #C1C1C1",
"I 	c #A0A0A0",
"J 	c #838383",
"K 	c #6A6A6A",
"L 	c #606060",
"M 	c #5A5A5A",
"N 	c #575656",
"O 	c #575757",
"P 	c #5D5D5D",
"Q 	c #636262",
"R 	c #787878",
"S 	c #888888",
"T 	c #B5B5B6",
"U 	c #C9C9C9",
"V 	c #D3D3D3",
"W 	c #EEEEEF",
"X 	c #D1D2D2",
"Y 	c #999999",
"Z 	c #4B4C4C",
"` 	c #000000",
" .	c #7B7B7B",
"..	c #FDFDFD",
"+.	c #D6D6D6",
"@.	c #E7E8E8",
"#.	c #ABABAB",
"$.	c #323231",
"%.	c #262625",
"&.	c #272727",
"*.	c #2F2F2F",
"=.	c #343434",
"-.	c #353535",
";.	c #363636",
">.	c #393939",
",.	c #3B3A3A",
"'.	c #3D3E3D",
").	c #424142",
"!.	c #484848",
"~.	c #4C4D4D",
"{.	c #4D4D4E",
"].	c #545454",
"^.	c #626262",
"/.	c #797979",
"(.	c #9E9E9F",
"_.	c #C7C8C8",
":.	c #EBECEC",
"<.	c #F8F8F8",
"[.	c #D1D1D2",
"}.	c #7D7D7D",
"|.	c #2C2C2C",
"1.	c #010102",
"2.	c #ADADAD",
"3.	c #F7F7F7",
"4.	c #E5E5E5",
"5.	c #757676",
"6.	c #0E0E0E",
"7.	c #111111",
"8.	c #232323",
"9.	c #222222",
"0.	c #2A2A2A",
"a.	c #585858",
"b.	c #636363",
"c.	c #737374",
"d.	c #707070",
"e.	c #696969",
"f.	c #494A4A",
"g.	c #4B4B4C",
"h.	c #5B5B5B",
"i.	c #666767",
"j.	c #646464",
"k.	c #595A5A",
"l.	c #585959",
"m.	c #6E6F6F",
"n.	c #A2A2A3",
"o.	c #DBDBDB",
"p.	c #8C8C8C",
"q.	c #2E2F2F",
"r.	c #000101",
"s.	c #DBDBDC",
"t.	c #ECEDED",
"u.	c #F1F1F2",
"v.	c #1D1D1D",
"w.	c #3B3B3B",
"x.	c #505050",
"y.	c #6D6D6D",
"z.	c #8E8E8F",
"A.	c #BCBCBC",
"B.	c #DADBDB",
"C.	c #EFEFF0",
"D.	c #FAFAFA",
"E.	c #FEFEFF",
"F.	c #E7E7E7",
"G.	c #F4F5F4",
"H.	c #EAEBEB",
"I.	c #C7C7C7",
"J.	c #99999A",
"K.	c #6B6B6B",
"L.	c #505151",
"M.	c #565657",
"N.	c #727373",
"O.	c #5F5F5F",
"P.	c #606061",
"Q.	c #919191",
"R.	c #DDDEDE",
"S.	c #6F7070",
"T.	c #5F6060",
"U.	c #F3F3F4",
"V.	c #EDEEEE",
"W.	c #C6C7C7",
"X.	c #59595A",
"Y.	c #858586",
"Z.	c #B7B7B7",
"`.	c #CECECE",
" +	c #D3D4D4",
".+	c #C7C7C8",
"++	c #C0C1C1",
"@+	c #AFB0B0",
"#+	c #ABACAC",
"$+	c #F9F9F9",
"%+	c #D9D9D9",
"&+	c #C2C2C2",
"*+	c #E5E5E6",
"=+	c #F5F5F6",
"-+	c #D2D2D2",
";+	c #909191",
">+	c #717172",
",+	c #767777",
"'+	c #656565",
")+	c #9E9E9E",
"!+	c #F6F6F6",
"~+	c #B1B1B1",
"{+	c #7D7E7E",
"]+	c #F2F2F3",
"^+	c #FAFBFB",
"/+	c #9C9B9C",
"(+	c #7F7F80",
"_+	c #4A4A4A",
":+	c #3E3E3E",
"<+	c #3A3A3A",
"[+	c #323233",
"}+	c #1C1C1D",
"|+	c #484748",
"1+	c #3F3F40",
"2+	c #545555",
"3+	c #686868",
"4+	c #939393",
"5+	c #C7C6C6",
"6+	c #EDEEEF",
"7+	c #C9CED8",
"8+	c #8A8C91",
"9+	c #5B5C5C",
"0+	c #777777",
"a+	c #727272",
"b+	c #CDCDCD",
"c+	c #E1E1E1",
"d+	c #666667",
"e+	c #DDDDDD",
"f+	c #E6E6E6",
"g+	c #CCCDCD",
"h+	c #565656",
"i+	c #2B2B2B",
"j+	c #171717",
"k+	c #303030",
"l+	c #383838",
"m+	c #404041",
"n+	c #222324",
"o+	c #858686",
"p+	c #323333",
"q+	c #565757",
"r+	c #4E4E4F",
"s+	c #494A4B",
"t+	c #6A6765",
"u+	c #E5E0CD",
"v+	c #FDFFFF",
"w+	c #C2CBD7",
"x+	c #808285",
"y+	c #5D5D5C",
"z+	c #747474",
"A+	c #7C7D7D",
"B+	c #707071",
"C+	c #616262",
"D+	c #FBFBFB",
"E+	c #818282",
"F+	c #090909",
"G+	c #BABBBB",
"H+	c #B3B3B3",
"I+	c #616162",
"J+	c #151514",
"K+	c #3D3E3E",
"L+	c #303031",
"M+	c #F5F5F5",
"N+	c #FCFCFD",
"O+	c #676767",
"P+	c #414242",
"Q+	c #616161",
"R+	c #5B626A",
"S+	c #6B6056",
"T+	c #FFCF72",
"U+	c #FFEF96",
"V+	c #FFDBAA",
"W+	c #E1DFDE",
"X+	c #B2B5B9",
"Y+	c #6D6E6E",
"Z+	c #7D7D7E",
"`+	c #8D8C8D",
" @	c #8B8C8D",
".@	c #0B0C0C",
"+@	c #C6C6C6",
"@@	c #555656",
"#@	c #2D2D2D",
"$@	c #2E2E2E",
"%@	c #323232",
"&@	c #343433",
"*@	c #363536",
"=@	c #383939",
"-@	c #1F1F1F",
";@	c #696C6E",
">@	c #6E6F72",
",@	c #BB9366",
"'@	c #C09B5F",
")@	c #8B7356",
"!@	c #83817D",
"~@	c #C5C7CA",
"{@	c #CFCFCF",
"]@	c #909090",
"^@	c #757575",
"/@	c #8D8D8E",
"(@	c #767677",
"_@	c #838484",
":@	c #050505",
"<@	c #292929",
"[@	c #282828",
"}@	c #333334",
"|@	c #363637",
"1@	c #333434",
"2@	c #3E3E3F",
"3@	c #D7D7D7",
"4@	c #FCFCFC",
"5@	c #AAAAAA",
"6@	c #4E4E4E",
"7@	c #4E4F4F",
"8@	c #515151",
"9@	c #504F4E",
"0@	c #4A4B4C",
"a@	c #2E3946",
"b@	c #273141",
"c@	c #2F3944",
"d@	c #343536",
"e@	c #272625",
"f@	c #919192",
"g@	c #3A3B3B",
"h@	c #535253",
"i@	c #5B5B5C",
"j@	c #4B4B4B",
"k@	c #6E6E6E",
"l@	c #020202",
"m@	c #202020",
"n@	c #393A3B",
"o@	c #F3F3F3",
"p@	c #F2F2F2",
"q@	c #464646",
"r@	c #050606",
"s@	c #2C2C2D",
"t@	c #272728",
"u@	c #1E1E1E",
"v@	c #1B1C1C",
"w@	c #19191A",
"x@	c #171818",
"y@	c #060606",
"z@	c #0A0A0A",
"A@	c #0C0D0D",
"B@	c #5A5A5B",
"C@	c #A1A1A2",
"D@	c #404040",
"E@	c #262626",
"F@	c #262727",
"G@	c #191A1B",
"H@	c #181919",
"I@	c #DCDCDC",
"J@	c #E4E4E4",
"K@	c #111212",
"L@	c #1F1F20",
"M@	c #242424",
"N@	c #212122",
"O@	c #1C1C1C",
"P@	c #1B1B1B",
"Q@	c #080808",
"R@	c #B8B8B8",
"S@	c #DFDFDF",
"T@	c #A4A4A4",
"U@	c #3C3C3C",
"V@	c #141414",
"W@	c #141515",
"X@	c #161717",
"Y@	c #040404",
"Z@	c #626363",
"`@	c #737373",
" #	c #040504",
".#	c #252525",
"+#	c #1D1E1E",
"@#	c #BEBEBE",
"##	c #141415",
"$#	c #151616",
"%#	c #181918",
"&#	c #222223",
"*#	c #474747",
"=#	c #AEAEAE",
"-#	c #242525",
";#	c #1D1D1E",
">#	c #1A1B1A",
",#	c #828282",
"'#	c #F0F0F0",
")#	c #525252",
"!#	c #1C1D1D",
"~#	c #101011",
"{#	c #0E0F0F",
"]#	c #5C5D5D",
"^#	c #979797",
"/#	c #1E1E1F",
"(#	c #F1F1F1",
"_#	c #0D0D0D",
":#	c #060607",
"<#	c #0B0B0B",
"[#	c #151516",
"}#	c #9A9A9A",
"|#	c #414141",
"1#	c #919292",
"2#	c #D0D0D0",
"3#	c #272626",
"4#	c #FEFEFE",
"5#	c #FDFDFE",
"6#	c #E0E0E1",
"7#	c #2D2C2C",
"8#	c #D3D3D4",
"9#	c #EBEBEB",
"0#	c #D0D0D1",
"a#	c #4C4C4C",
"b#	c #0E0E0F",
"c#	c #B5B5B5",
"d#	c #020203",
"e#	c #DEDEDE",
"f#	c #767676",
"g#	c #474848",
"h#	c #9E9E9D",
"i#	c #3F3F3F",
"j#	c #949595",
"k#	c #C4C4C4",
"l#	c #CACACA",
"m#	c #C3C3C3",
"n#	c #424343",
"o#	c #868686",
"p#	c #D4D4D4",
"q#	c #E8E8E8",
"r#	c #434344",
"s#	c #444444",
"t#	c #B9B9B9",
"u#	c #EAEAEA",
"v#	c #BABABA",
"w#	c #444545",
"x#	c #000001",
"y#	c #030404",
"                                                                                                ",
"                                                                                                ",
"                                                                                                ",
"                                                                                                ",
"                                                                                                ",
"                                                                                                ",
"                                                                                                ",
"                                                                                                ",
"                                                                                                ",
"                                                                                                ",
"        . + + @ # $ % & * = - ; - > , ' ) ! ~                                                   ",
"      { ] ^ / ( _ : < [ } | 1 2 3 4 5 6 : 7 8 9 0 a b c                                         ",
"    d e f g h i j k l l l l m n h o p q r p s t u v w x y z A ~                                 ",
"    @ ] B C D E F G H I J K L M N O 9 P Q / R S } T U V s W X Y Z , ~                           ",
"    `  ...+.@.m #.M $.%.&.*.=.-.-.;.;.>.,.'.).!.~.{.].^./.(._.:.<.[.}.|.d                       ",
"  1.% 2.3.4.g 5.6.7.8.8.9.0.-.!.a.b./ y c.d.e.9 f.g.h.i.j.k.l.m.n.o...4.p.q.1.                  ",
"  r.>.s.t.u.P ` v.w.x.y.z.1 A.B.C.D.l l E.F.G.H.I.J.K.L.M./ N.y.O.P.Q.R.l B.S.,                 ",
"  ` T.U.V.W.X.Y.Z.`.@.l l l l H. +.+++@+#+$+%+&+*+=+g -+;+h.k.>+,+5.'+b.)+!+l ~+w.~             ",
"  ` {+l E o.]+l l l ^+U /+(+'+_+:+<+[+}+4 %+|+1+2+3+4+5+6+7+8+9+'+R ( 0+^.a+b+l c+d+c           ",
"  ` )+l e+f+l l g+Q.h+i+j+- 8.k+l+m+n+o+l ( p+h.9 q+r+s+t+u+v+w+x+y+z+ .A+B+C+4 l D+E+F+        ",
"1.$ G+l l l H+I+9.F+J+i+-.;.>.w.K+L+x.M+N+O+P+M P Q+'+R+S+T+U+V+W+X+Y+/ {+Z+( ^.`+l l  @.@      ",
"1.j+c+l +@@@. @ a #@$@k+%@&@*@=@0 -@I l D+{+0 Q+j.O+K ;@>@,@'@)@!@~@{@]@^@/@: ]@(@4+l l _@:@    ",
"1.&.o.J e @ 9.<@[@0.|.#@k+$.}@|@1@2@3@4@l 5@&.6@7@x.8@9@0@a@b@c@d@e@@@f@K.g@g.h@i@j@ .l 3.k@#   ",
"l@m@- ` ` j+&.i+0.0.|.#@k+[+|@n@<@L.o@M+o@p@q@r@%@s@t@a u@v@w@- x@j+@ , _+9.y@z@z@A@` B@l C@6.  ",
"l@y@:@0 D@- ` ` u@E@&.<@<@&.F@F@G@H@I@l J@l f+0 ` K@L@-@9.M@E@E@E@E@[@u@- *.N@O@P@j+Q@` {@D `   ",
"1.+ R@l l S@T@U@` ` j+{ V@, W@X@v.Y@Z@l l 3.l <.`@ #` a <@[@[@[@[@[@[@&..#a 9.a +#P@P@` 0+l v@1.",
"1.` @#l o@l l l 6 , ` 6.##$#%#+#.#&#` *#=#F.D+l l p ^.' ` - 0.0.<@<@<@[@&.E@-#9.m@;#>#` L l <@+ ",
"  ` ,#l '#'#j D.l F.)#` ` H@;#!#{ ~#{#` ` v.=.]#x 4.l p ^#:+Q@l@V@8.[@<@<@&.E@M@9.-@O@` K.l /#+ ",
"  ` h+l !+o@o@p@(#l l < _#` :#<#Q@{#[#w@` ` : }#` _#|#1#&+2#@#Y 7@; z@@ . % V@j+; P@P@` 6 D+y@1.",
"  ` 3#l 4#M+M+M+M+o@5#l 6#a.` ` ` ` ` ` 7#8#l ^#F+@ ` ` + K+_ +@9#u.0#[ 3+a#U@|.O@b#` ` p@c#` d#",
"  r.@ e#l !+!+!+!+!+=+M+l l I.f#g#1+O h#l l y Y@z@    1.@ + ` ` i#j#R.l l l 5#f+-+k#H+l#l :+`   ",
"  + ` 5 l <.<.<.<.<.<.<.3.4@l l l l l l m#i#` %             1.~ ` ` . n#o#p#l l l l l l x ` Y@  ",
"  1.` f#l D+D.D.D.D.D.D+l l l l l q#Y r#Y@` {#                    1.r.` ` 7.s#o#t#q#p@[ . .     ",
"    ` 0 l l 4@l l l l l l u#v#/.w#$#` ` ' d                             1.r.` ` + E@|.l@<#:@    ",
"    x#+ D+l l l l c+3 ^@>.% ` ` ` ` Q@+                                       ~ + x#` F+d#      ",
"    + ` )+m#,#h+#@@ ` ` ` ` ` y#~ 1.                                                            ",
"      + ` ` ` ` ` ` ` ` + 1.                                                                    ",
"      + ` ` x#+ 1.~                                                                             ",
"                                                                                                ",
"                                                                                                ",
"                                                                                                ",
"                                                                                                ",
"                                                                                                ",
"                                                                                                ",
"                                                                                                ",
"                                                                                                ",
"                                                                                                ",
"                                                                                                "};
