/* XPM */
static char * komodo32_ide_xpm[] = {
"32 32 266 2",
"  	c None",
". 	c #050606",
"+ 	c #0D0D0E",
"@ 	c #1F1F1F",
"# 	c #2E2E2E",
"$ 	c #383838",
"% 	c #424242",
"& 	c #4C4C4C",
"* 	c #515152",
"= 	c #515252",
"- 	c #4E4E4E",
"; 	c #444444",
"> 	c #363636",
", 	c #252525",
"' 	c #141415",
") 	c #040405",
"! 	c #303130",
"~ 	c #B7B7B7",
"{ 	c #D1D1D2",
"] 	c #DEDEDE",
"^ 	c #FBFBFB",
"/ 	c #FCFCFC",
"( 	c #ECECEC",
"_ 	c #E0E0E0",
": 	c #D6D6D6",
"< 	c #CECECE",
"[ 	c #CACACA",
"} 	c #C9C9C9",
"| 	c #C6C7C7",
"1 	c #C0C1C1",
"2 	c #B5B5B5",
"3 	c #A2A2A2",
"4 	c #7C7C7C",
"5 	c #454545",
"6 	c #121212",
"7 	c #010101",
"8 	c #808080",
"9 	c #FFFFFF",
"0 	c #F8F8F9",
"a 	c #B2B2B2",
"b 	c #848484",
"c 	c #676767",
"d 	c #565656",
"e 	c #494949",
"f 	c #545454",
"g 	c #616161",
"h 	c #767676",
"i 	c #919191",
"j 	c #AAAAAB",
"k 	c #C0C0C0",
"l 	c #CDCDCE",
"m 	c #A7A7A8",
"n 	c #040506",
"o 	c #0B0B0B",
"p 	c #C2C2C2",
"q 	c #C3C3C4",
"r 	c #313131",
"s 	c #000000",
"t 	c #030303",
"u 	c #1D1D1D",
"v 	c #515151",
"w 	c #686768",
"x 	c #757575",
"y 	c #6D6D6D",
"z 	c #666667",
"A 	c #4B4C4C",
"B 	c #454646",
"C 	c #8C8C8C",
"D 	c #BDBDBD",
"E 	c #E2E2E2",
"F 	c #D4D4D4",
"G 	c #6A6B6B",
"H 	c #020203",
"I 	c #3A3A3A",
"J 	c #F0F1F1",
"K 	c #E4E4E4",
"L 	c #333333",
"M 	c #B5B6B6",
"N 	c #D9DADA",
"O 	c #EBEBEB",
"P 	c #EDEEEE",
"Q 	c #EBECEC",
"R 	c #E7E7E7",
"S 	c #F3F3F3",
"T 	c #E1E2E2",
"U 	c #D1D1D1",
"V 	c #BCBCBD",
"W 	c #929292",
"X 	c #5C5D5E",
"Y 	c #5C5C5C",
"Z 	c #737373",
"` 	c #F7F7F7",
" .	c #D5D5D6",
"..	c #38393A",
"+.	c #010102",
"@.	c #636364",
"#.	c #D2D2D3",
"$.	c #DDDDDD",
"%.	c #8E8E8E",
"&.	c #727272",
"*.	c #636363",
"=.	c #3E3F3F",
"-.	c #A3A3A3",
";.	c #BEBEBF",
">.	c #5E5E5F",
",.	c #878787",
"'.	c #ACADAD",
").	c #C3C2C1",
"!.	c #B7BDC4",
"~.	c #878E9D",
"{.	c #616568",
"].	c #696866",
"^.	c #626262",
"/.	c #777777",
"(.	c #D7D7D7",
"_.	c #828384",
":.	c #010202",
"<.	c #818282",
"[.	c #E6E6E6",
"}.	c #505050",
"|.	c #282828",
"1.	c #181818",
"2.	c #1B1B1A",
"3.	c #262626",
"4.	c #191919",
"5.	c #565657",
"6.	c #F2F2F2",
"7.	c #666666",
"8.	c #383839",
"9.	c #4F4F4F",
"0.	c #4A4B4C",
"a.	c #494D55",
"b.	c #E7CFA5",
"c.	c #FFFFDA",
"d.	c #C6BFB9",
"e.	c #85888C",
"f.	c #707070",
"g.	c #656565",
"h.	c #ACACAC",
"i.	c #ACACAD",
"j.	c #BFBFBF",
"k.	c #7B7B7B",
"l.	c #242424",
"m.	c #292929",
"n.	c #373737",
"o.	c #2A2A2B",
"p.	c #C4C5C5",
"q.	c #464646",
"r.	c #646465",
"s.	c #676869",
"t.	c #5D636B",
"u.	c #A28762",
"v.	c #BA985E",
"w.	c #9D968D",
"x.	c #A8ACB1",
"y.	c #999A9A",
"z.	c #797979",
"A.	c #7D7D7D",
"B.	c #A1A2A2",
"C.	c #B5B5B6",
"D.	c #030304",
"E.	c #060607",
"F.	c #595959",
"G.	c #10100F",
"H.	c #2F2F2F",
"I.	c #323232",
"J.	c #2C2C2D",
"K.	c #4F4F50",
"L.	c #F0F0F0",
"M.	c #A1A1A1",
"N.	c #101010",
"O.	c #3F3F3F",
"P.	c #3A3937",
"Q.	c #212731",
"R.	c #151D2D",
"S.	c #171B1E",
"T.	c #242321",
"U.	c #565655",
"V.	c #4F5050",
"W.	c #353535",
"X.	c #606060",
"Y.	c #707071",
"Z.	c #3B3B3B",
"`.	c #4B4B4B",
" +	c #111111",
".+	c #1B1B1B",
"++	c #262726",
"@+	c #262727",
"#+	c #1A1A1A",
"$+	c #242425",
"%+	c #1C1C1C",
"&+	c #1E1E1E",
"*+	c #101011",
"=+	c #232324",
"-+	c #0C0C0C",
";+	c #070808",
">+	c #A1A1A2",
",+	c #B8B9B9",
"'+	c #909090",
")+	c #CCCCCD",
"!+	c #5E5E5E",
"~+	c #131414",
"{+	c #141515",
"]+	c #1C1C1D",
"^+	c #0A0A0A",
"/+	c #D5D5D5",
"(+	c #D1D2D2",
"_+	c #0E0E0E",
":+	c #070707",
"<+	c #2A2A2A",
"[+	c #232323",
"}+	c #222222",
"|+	c #1E1F1F",
"1+	c #5A5B5B",
"2+	c #C3C3C3",
"3+	c #000101",
"4+	c #6A6A6A",
"5+	c #F8F8F8",
"6+	c #B4B4B3",
"7+	c #202020",
"8+	c #0C0D0D",
"9+	c #151616",
"0+	c #969696",
"a+	c #C4C4C4",
"b+	c #A4A4A4",
"c+	c #7A7A7A",
"d+	c #474747",
"e+	c #151515",
"f+	c #161616",
"g+	c #1B1C1C",
"h+	c #BCBCBC",
"i+	c #FDFDFD",
"j+	c #F4F4F4",
"k+	c #6C6C6C",
"l+	c #020202",
"m+	c #AEAEAE",
"n+	c #B6B6B6",
"o+	c #565757",
"p+	c #898989",
"q+	c #9D9D9D",
"r+	c #A6A6A6",
"s+	c #9E9E9E",
"t+	c #0D0D0D",
"u+	c #A0A0A0",
"v+	c #AFB0B0",
"w+	c #E5E5E5",
"x+	c #F6F6F6",
"y+	c #F5F5F5",
"z+	c #DFDFE0",
"A+	c #555555",
"B+	c #DBDBDB",
"C+	c #EFEFEF",
"D+	c #D2D1D1",
"E+	c #B3B3B3",
"F+	c #F9F9F9",
"G+	c #FAFAFA",
"H+	c #7E7E7E",
"I+	c #030404",
"J+	c #050505",
"K+	c #FEFEFE",
"L+	c #D2D2D2",
"M+	c #2B2B2B",
"N+	c #2E2F2F",
"O+	c #DFDFDF",
"P+	c #525252",
"Q+	c #212121",
"                                                                ",
"                                                                ",
"                                                                ",
"                                                                ",
"                                                                ",
"                                                                ",
"                                                                ",
"    . + @ # $ % & * = - ; > , ' )                               ",
"    ! ~ { ] ^ / ( _ : < [ } | 1 2 3 4 5 6                       ",
"  7 8 9 9 0 a b c d & e & f g h i j k l [ m - n                 ",
"  o p 9 q r s t u $ v w x h y z A $ B c C D E F G H             ",
"  I J K - L b M N O P Q R N S T U V W X * Y Z 2 `  ...          ",
"+.@.9 #.$.9 9 K 2 %.&.*.=.-.;.>.,.'.).!.~.{.].^./.(.9 _.:.      ",
"7 <.9 9 [.W }.|.1.2.3.4.5.6.7.8.9.0.a.b.c.d.e.f.x g.h.9 i.+.    ",
"7 j.9 k.l.t 6 m.L > n.o.p.9 ^.q.r.s.t.u.v.w.x.y.z.A.y B.9 C.D.  ",
"E.F.4.s G.# # H.I.> J.K.L.9 M.N.I O.P.Q.R.S.T.U.V.# W.@ X.9 Y.  ",
". ' Z.`. +s .+|.++@+#+$+( 9 9 /.s s %+&+&+@ %+*+=+#+-+;+s >+,+7 ",
"7 '+9 9 )+!+s s ~+{+]+^+}./+9 9 (+d _+:+u m.<+m.[+[+}+|+s 1+2+3+",
"+.4+9 5+9 9 6+7+s 8+#+9+s s I.0+a+l b+c+d+e+t o f+.+%+g+s X.h+3+",
"+.H.9 i+S 5+9 j+k+s s s s l+m+n+s ^+o+p+q+r+s+h q.m.#+t+s u+v+7 ",
"  l+w+9 ` x+y+9 9 < A.y q+` z+n.+.  +.3+o A+M.B+9 9 C+D+[ 9 Z.+.",
"  s E+9 F+G+i+9 9 9 9 9 [.H+I+7           +.3+J+& s+w+9 9 8 s   ",
"  3+k.9 9 9 9 K+L+q+g.H.s s +.                  +.3+s M+N+s :.  ",
"  +.Z.O+n+b P+Q+s s s 7 +.                              +.      ",
"    s s s s s 7 +.                                              ",
"    7 +.                                                        ",
"                                                                ",
"                                                                ",
"                                                                ",
"                                                                ",
"                                                                ",
"                                                                "};
