/* XPM */
static char * komodo16_ide_xpm[] = {
"16 16 100 2",
"  	c None",
". 	c #363737",
"+ 	c #999999",
"@ 	c #919191",
"# 	c #797979",
"$ 	c #686869",
"% 	c #5B5B5B",
"& 	c #505050",
"* 	c #434444",
"= 	c #303031",
"- 	c #060607",
"; 	c #D7D7D8",
"> 	c #D4D4D4",
", 	c #848484",
"' 	c #959495",
") 	c #A6A6A6",
"! 	c #A0A0A0",
"~ 	c #ACACAC",
"{ 	c #AFAFAF",
"] 	c #929396",
"^ 	c #8A8B8E",
"/ 	c #7D7C7C",
"( 	c #2F2F30",
"_ 	c #343434",
": 	c #FFFFFF",
"< 	c #B6B6B7",
"[ 	c #858586",
"} 	c #8C8C8D",
"| 	c #7A7A7A",
"1 	c #9F9F9F",
"2 	c #A9A9A9",
"3 	c #828487",
"4 	c #A19D96",
"5 	c #A7A29A",
"6 	c #A3A5A7",
"7 	c #CBCBCB",
"8 	c #8E8F8F",
"9 	c #49494A",
"0 	c #9C9C9C",
"a 	c #4F4F4F",
"b 	c #3B3B3B",
"c 	c #1E1E1E",
"d 	c #2A2A2B",
"e 	c #CECECE",
"f 	c #626263",
"g 	c #1B1F25",
"h 	c #8E8371",
"i 	c #A99C87",
"j 	c #686C70",
"k 	c #626262",
"l 	c #BABABA",
"m 	c #B2B2B3",
"n 	c #313131",
"o 	c #5E5E5E",
"p 	c #161616",
"q 	c #000000",
"r 	c #080808",
"s 	c #2D2E2E",
"t 	c #F0F0F0",
"u 	c #C8C8C8",
"v 	c #484847",
"w 	c #0C0D10",
"x 	c #1B1B1A",
"y 	c #1F1F1F",
"z 	c #7F7F80",
"A 	c #5D5D5D",
"B 	c #F7F7F7",
"C 	c #7C7C7D",
"D 	c #040405",
"E 	c #2A2B2B",
"F 	c #C7C7C7",
"G 	c #8B8C8C",
"H 	c #606060",
"I 	c #565656",
"J 	c #363636",
"K 	c #4D4D4D",
"L 	c #646464",
"M 	c #040404",
"N 	c #F1F1F2",
"O 	c #A3A3A3",
"P 	c #868687",
"Q 	c #4C4C4D",
"R 	c #010203",
"S 	c #121213",
"T 	c #39393A",
"U 	c #6C6C6C",
"V 	c #C1C1C1",
"W 	c #C0C0C1",
"X 	c #1C1C1C",
"Y 	c #010202",
"Z 	c #A3A3A4",
"` 	c #DBDBDB",
" .	c #8B8B8B",
"..	c #646465",
"+.	c #090A0B",
"@.	c #404141",
"#.	c #2E2E2E",
"$.	c #030303",
"%.	c #010101",
"&.	c #010102",
"                                ",
"                                ",
"                                ",
"                                ",
"  . + @ # $ % & * =             ",
"- ; > , ' ) ! ~ { ] ^ / (       ",
"_ : < [ } | 1 2 3 4 5 6 7 8     ",
"9 0 a b c d e f g h i j k l m   ",
"n o p q r s t u v w q x y q z A ",
"n : B C D q E F G % H I J q K L ",
"M N : : : O P Q R S T U 0 V W X ",
"Y Z ` )  ...X           +.@.#.  ",
"  $.%.&.                        ",
"                                ",
"                                ",
"                                "};
